<svg xmlns="http://www.w3.org/2000/svg" viewBox="0 0 575.63 613.69"><defs><style>.cls-1{fill:#339;}</style></defs><g id="Layer_2" data-name="Layer 2"><g id="Layer_1-2" data-name="Layer 1"><path class="cls-1" d="M575.63,168.52v81a18,18,0,0,1-10.22,16.2l-270,135.66a18.17,18.17,0,0,1-15.36,0L10.28,265.69A17.93,17.93,0,0,1,0,249.49v-81a18,18,0,0,0,10.28,16.19l269.8,135.6a17.75,17.75,0,0,0,15.36,0l270-135.6A18,18,0,0,0,575.63,168.52Z"/><path class="cls-1" d="M575.63,273.83v81A18,18,0,0,1,565.41,371l-270,135.66a18.17,18.17,0,0,1-15.36,0L10.28,371A17.94,17.94,0,0,1,0,354.81v-81A18,18,0,0,0,10.28,290l269.8,135.6a17.75,17.75,0,0,0,15.36,0l270-135.6A18,18,0,0,0,575.63,273.83Z"/><path class="cls-1" d="M575.63,379.15v81a18,18,0,0,1-10.22,16.19L295.44,612a18.17,18.17,0,0,1-15.36,0L10.28,476.32A17.92,17.92,0,0,1,0,460.13v-81a18,18,0,0,0,10.28,16.2L280.08,531a17.75,17.75,0,0,0,15.36,0l270-135.6A18.06,18.06,0,0,0,575.63,379.15Z"/><path class="cls-1" d="M568.64,153.74,292.84,284.62a11.81,11.81,0,0,1-10.22,0L6.81,153.74a12,12,0,0,1,0-21.63L282.62,1.17a11.74,11.74,0,0,1,10.22,0l99.32,47.15L306.64,88.9,290,81a5.32,5.32,0,0,0-4.48,0L165,138.2a5.21,5.21,0,0,0,0,9.44l120.48,57.2a5.39,5.39,0,0,0,4.48,0l120.48-57.2a5.24,5.24,0,0,0,0-9.44L394,130.37l85.46-40.58,89.16,42.32A12,12,0,0,1,568.64,153.74Z"/></g></g></svg>